<svg width="32" height="32" viewBox="0 0 32 32" fill="none" xmlns="http://www.w3.org/2000/svg">
  <path d="M15.9998 13.0909V19.2873H24.6106C24.2325 21.28 23.0978 22.9673 21.3961 24.1018L26.5888 28.131C29.6142 25.3383 31.3597 21.2365 31.3597 16.3638C31.3597 15.2292 31.2579 14.1382 31.0687 13.0911L15.9998 13.0909Z" fill="#4285F4" />
  <path d="M7.03292 19.0453L5.86177 19.9419L1.71625 23.1709C4.34897 28.3927 9.74493 32 15.9994 32C20.3193 32 23.9411 30.5745 26.5884 28.1309L21.3957 24.1018C19.9703 25.0618 18.1521 25.6437 15.9994 25.6437C11.8395 25.6437 8.30501 22.8364 7.03946 19.0546L7.03292 19.0453Z" fill="#34A853" />
  <path d="M1.71624 8.8291C0.625389 10.9817 0 13.4109 0 15.9999C0 18.589 0.625389 21.0181 1.71624 23.1707C1.71624 23.1852 7.03997 19.0398 7.03997 19.0398C6.71997 18.0798 6.53082 17.0617 6.53082 15.9997C6.53082 14.9378 6.71997 13.9197 7.03997 12.9597L1.71624 8.8291Z" fill="#FBBC05" />
  <path d="M15.9998 6.3709C18.3562 6.3709 20.4507 7.18543 22.1234 8.75636L26.7052 4.1746C23.927 1.58555 20.3198 0 15.9998 0C9.74526 0 4.34897 3.59272 1.71625 8.8291L7.03981 12.96C8.30519 9.17816 11.8398 6.3709 15.9998 6.3709Z" fill="#EA4335" />
</svg>