<svg width="185" height="45" viewBox="0 0 185 45" fill="none" xmlns="http://www.w3.org/2000/svg">
<rect x="1" y="1" width="183" height="43" rx="21.5" stroke="#AFC1E7" stroke-width="2" stroke-linecap="round" stroke-dasharray="8 8"/>
<path d="M30.056 17.312C29.576 17.312 29.1813 17.3813 28.872 17.52C28.5627 17.6587 28.312 17.8293 28.12 18.032C27.9387 18.224 27.8053 18.4373 27.72 18.672C27.6453 18.9067 27.6027 19.12 27.592 19.312H26.376C26.3867 18.8533 26.488 18.4533 26.68 18.112C26.872 17.7707 27.128 17.488 27.448 17.264C27.7787 17.04 28.168 16.8747 28.616 16.768C29.064 16.6613 29.56 16.608 30.104 16.608C30.808 16.608 31.4053 16.6933 31.896 16.864C32.3867 17.024 32.7867 17.2373 33.096 17.504C33.416 17.76 33.6453 18.0587 33.784 18.4C33.9227 18.7307 33.992 19.0667 33.992 19.408C33.992 19.728 33.9333 20.0427 33.816 20.352C33.7093 20.6613 33.5547 20.9387 33.352 21.184C33.1493 21.4187 32.904 21.6107 32.616 21.76C32.3387 21.8987 32.0347 21.968 31.704 21.968V22.032H31.816C32.168 22.032 32.5147 22.1013 32.856 22.24C33.1973 22.368 33.5013 22.56 33.768 22.816C34.0347 23.0613 34.248 23.36 34.408 23.712C34.5787 24.0533 34.664 24.4373 34.664 24.864C34.664 25.248 34.584 25.6373 34.424 26.032C34.2747 26.4267 34.0187 26.784 33.656 27.104C33.2933 27.424 32.808 27.6853 32.2 27.888C31.6027 28.0907 30.8613 28.192 29.976 28.192C28.6213 28.192 27.6187 27.9413 26.968 27.44C26.328 26.928 25.992 26.1707 25.96 25.168H27.464C27.4747 25.3493 27.5067 25.5733 27.56 25.84C27.624 26.096 27.7467 26.3467 27.928 26.592C28.1093 26.8373 28.3707 27.0507 28.712 27.232C29.0533 27.4027 29.512 27.488 30.088 27.488C30.6747 27.488 31.16 27.3973 31.544 27.216C31.928 27.0347 32.232 26.8107 32.456 26.544C32.68 26.2667 32.8347 25.9733 32.92 25.664C33.016 25.344 33.064 25.056 33.064 24.8C33.064 24.4267 32.984 24.0907 32.824 23.792C32.6747 23.4933 32.456 23.2427 32.168 23.04C31.8907 22.8267 31.5547 22.6667 31.16 22.56C30.7653 22.4533 30.328 22.4 29.848 22.4H28.728V21.696H29.848C30.4667 21.696 30.952 21.6107 31.304 21.44C31.6667 21.2587 31.9387 21.0453 32.12 20.8C32.3013 20.5547 32.4133 20.304 32.456 20.048C32.5093 19.792 32.536 19.584 32.536 19.424C32.536 18.816 32.3227 18.3147 31.896 17.92C31.48 17.5147 30.8667 17.312 30.056 17.312ZM39.849 19.824C40.6277 19.824 41.2303 19.936 41.657 20.16C42.0837 20.3733 42.393 20.656 42.585 21.008C42.7877 21.36 42.905 21.7653 42.937 22.224C42.969 22.6827 42.985 23.152 42.985 23.632V28H41.689V27.216C41.3797 27.5147 40.985 27.7547 40.505 27.936C40.025 28.1067 39.545 28.192 39.065 28.192C38.6063 28.192 38.201 28.112 37.849 27.952C37.497 27.792 37.2037 27.584 36.969 27.328C36.7343 27.072 36.5583 26.784 36.441 26.464C36.3237 26.144 36.265 25.8187 36.265 25.488C36.265 25.1467 36.329 24.8053 36.457 24.464C36.585 24.1227 36.777 23.8187 37.033 23.552C37.289 23.2747 37.6037 23.0507 37.977 22.88C38.3503 22.7093 38.777 22.624 39.257 22.624C39.737 22.624 40.1903 22.72 40.617 22.912C41.0543 23.0933 41.4117 23.3547 41.689 23.696V23.008C41.689 22.1333 41.5557 21.4827 41.289 21.056C41.033 20.6293 40.5583 20.416 39.865 20.416C39.5663 20.416 39.305 20.4533 39.081 20.528C38.857 20.6027 38.6543 20.7093 38.473 20.848C38.3023 20.976 38.1423 21.1413 37.993 21.344C37.8437 21.536 37.6943 21.7547 37.545 22L36.713 21.168C36.8623 21.008 37.017 20.848 37.177 20.688C37.3477 20.528 37.5503 20.384 37.785 20.256C38.0303 20.128 38.3183 20.0267 38.649 19.952C38.9797 19.8667 39.3797 19.824 39.849 19.824ZM41.689 24.832C41.6357 24.704 41.5557 24.5547 41.449 24.384C41.353 24.2133 41.225 24.048 41.065 23.888C40.905 23.728 40.713 23.5947 40.489 23.488C40.265 23.3707 39.9983 23.312 39.689 23.312C39.3797 23.312 39.097 23.376 38.841 23.504C38.585 23.6213 38.3663 23.7813 38.185 23.984C38.0143 24.176 37.881 24.4053 37.785 24.672C37.689 24.9387 37.641 25.216 37.641 25.504C37.641 25.8453 37.6997 26.144 37.817 26.4C37.945 26.6453 38.105 26.8587 38.297 27.04C38.489 27.2107 38.7023 27.3387 38.937 27.424C39.1717 27.5093 39.3957 27.552 39.609 27.552C39.8117 27.552 40.0143 27.5147 40.217 27.44C40.4303 27.3653 40.6277 27.264 40.809 27.136C41.001 26.9973 41.1717 26.8373 41.321 26.656C41.4703 26.4747 41.593 26.2773 41.689 26.064V24.832ZM45.5456 32V20H46.9056V21.296H46.9696C47.3643 20.3147 48.1963 19.824 49.4656 19.824C49.999 19.824 50.4896 19.9253 50.9376 20.128C51.3856 20.32 51.7696 20.6027 52.0896 20.976C52.4203 21.3387 52.6763 21.776 52.8576 22.288C53.039 22.8 53.1296 23.376 53.1296 24.016C53.1296 24.6453 53.039 25.2213 52.8576 25.744C52.6763 26.256 52.4203 26.6933 52.0896 27.056C51.7696 27.4187 51.3856 27.7013 50.9376 27.904C50.4896 28.096 49.999 28.192 49.4656 28.192C49.2096 28.192 48.9536 28.1653 48.6976 28.112C48.4523 28.0587 48.2176 27.9733 47.9936 27.856C47.7696 27.7387 47.567 27.584 47.3856 27.392C47.215 27.2 47.0763 26.9653 46.9696 26.688H46.9056V32H45.5456ZM46.9056 23.2V24.592C46.9056 25.0293 46.9643 25.4187 47.0816 25.76C47.2096 26.1013 47.375 26.3947 47.5776 26.64C47.7803 26.8747 48.015 27.056 48.2816 27.184C48.5483 27.3013 48.831 27.36 49.1296 27.36C49.4603 27.36 49.775 27.3013 50.0736 27.184C50.3723 27.056 50.6336 26.8587 50.8576 26.592C51.0923 26.3147 51.2736 25.9627 51.4016 25.536C51.5403 25.1093 51.6096 24.592 51.6096 23.984C51.6096 23.3867 51.5403 22.8747 51.4016 22.448C51.2736 22.0213 51.0976 21.6747 50.8736 21.408C50.6496 21.1413 50.383 20.9493 50.0736 20.832C49.775 20.704 49.4603 20.64 49.1296 20.64C48.8203 20.64 48.527 20.7093 48.2496 20.848C47.983 20.976 47.7483 21.1573 47.5456 21.392C47.343 21.616 47.183 21.888 47.0656 22.208C46.959 22.5173 46.9056 22.848 46.9056 23.2ZM62.3059 24.352H56.2259C56.2259 25.0027 56.3219 25.536 56.5139 25.952C56.7059 26.368 56.9459 26.6933 57.2339 26.928C57.5219 27.1627 57.8312 27.328 58.1619 27.424C58.5032 27.5093 58.8232 27.552 59.1219 27.552C59.3885 27.552 59.6285 27.5253 59.8419 27.472C60.0659 27.408 60.2792 27.3227 60.4819 27.216C60.6845 27.1093 60.8819 26.976 61.0739 26.816C61.2765 26.656 61.4899 26.48 61.7139 26.288L62.2259 26.8C61.7992 27.248 61.2979 27.5947 60.7219 27.84C60.1459 28.0747 59.5165 28.192 58.8339 28.192C58.1299 28.192 57.5165 28.0747 56.9939 27.84C56.4819 27.5947 56.0552 27.2747 55.7139 26.88C55.3832 26.4747 55.1325 26.0213 54.9619 25.52C54.8019 25.008 54.7219 24.4853 54.7219 23.952C54.7219 23.312 54.8179 22.7413 55.0099 22.24C55.2019 21.728 55.4685 21.296 55.8099 20.944C56.1512 20.5813 56.5512 20.3093 57.0099 20.128C57.4685 19.936 57.9699 19.84 58.5139 19.84C59.0259 19.84 59.5112 19.9253 59.9699 20.096C60.4285 20.2667 60.8285 20.5227 61.1699 20.864C61.5219 21.2053 61.7992 21.6373 62.0019 22.16C62.2045 22.6827 62.3059 23.3013 62.3059 24.016V24.352ZM56.2259 23.712H60.9139C60.9139 22.6773 60.7005 21.8667 60.2739 21.28C59.8579 20.6827 59.2712 20.384 58.5139 20.384C58.1192 20.384 57.7779 20.48 57.4899 20.672C57.2019 20.8533 56.9619 21.0987 56.7699 21.408C56.5885 21.7173 56.4499 22.0747 56.3539 22.48C56.2685 22.8747 56.2259 23.2853 56.2259 23.712ZM67.6374 20.464C67.3707 20.464 67.088 20.5067 66.7894 20.592C66.5014 20.6773 66.2294 20.8373 65.9734 21.072C65.728 21.296 65.5254 21.616 65.3654 22.032C65.2054 22.448 65.12 22.9813 65.1094 23.632H68.2454V24.208H65.1094C65.1094 24.3147 65.1147 24.4693 65.1254 24.672C65.1467 24.8747 65.184 25.104 65.2374 25.36C65.2907 25.6053 65.3707 25.8613 65.4774 26.128C65.5947 26.384 65.744 26.6187 65.9254 26.832C66.1174 27.0347 66.352 27.2053 66.6294 27.344C66.9174 27.4827 67.264 27.552 67.6694 27.552C68.032 27.552 68.352 27.4987 68.6294 27.392C68.9067 27.2853 69.1467 27.152 69.3494 26.992C69.5627 26.8213 69.7387 26.64 69.8774 26.448C70.016 26.2453 70.128 26.0587 70.2134 25.888L70.9174 26.592C70.4374 27.2107 69.9254 27.632 69.3814 27.856C68.8374 28.0693 68.2454 28.176 67.6054 28.176C67.2747 28.176 66.944 28.1493 66.6134 28.096C66.2827 28.0427 65.9627 27.9413 65.6534 27.792C65.408 27.6747 65.1627 27.5147 64.9174 27.312C64.6827 27.1093 64.464 26.8533 64.2614 26.544C64.0587 26.224 63.8934 25.856 63.7654 25.44C63.648 25.0133 63.5894 24.5227 63.5894 23.968C63.5894 23.328 63.68 22.752 63.8614 22.24C64.0427 21.728 64.304 21.296 64.6454 20.944C64.9867 20.5813 65.3974 20.304 65.8774 20.112C66.368 19.92 66.9174 19.824 67.5254 19.824C68.048 19.824 68.512 19.8933 68.9174 20.032C69.3227 20.16 69.664 20.3253 69.9414 20.528C70.2187 20.7307 70.4267 20.9547 70.5654 21.2C70.7147 21.4453 70.7947 21.68 70.8054 21.904H69.6214C69.5894 21.5947 69.4987 21.3493 69.3494 21.168C69.2 20.976 69.024 20.8267 68.8214 20.72C68.6294 20.6133 68.4267 20.544 68.2134 20.512C68 20.48 67.808 20.464 67.6374 20.464ZM77.0148 27.36C77.4521 27.36 77.8521 27.2907 78.2148 27.152C78.5881 27.0027 78.9614 26.7733 79.3348 26.464L79.7987 27.072C79.4361 27.3493 78.9881 27.6053 78.4548 27.84C77.9321 28.0747 77.3188 28.192 76.6148 28.192C75.9854 28.192 75.4201 28.0853 74.9188 27.872C74.4174 27.648 73.9854 27.3493 73.6228 26.976C73.2708 26.592 72.9988 26.144 72.8068 25.632C72.6148 25.1093 72.5188 24.5493 72.5188 23.952C72.5188 23.3867 72.6041 22.8533 72.7747 22.352C72.9561 21.8507 73.2228 21.4133 73.5748 21.04C73.9268 20.6667 74.3588 20.3733 74.8708 20.16C75.3828 19.936 75.9748 19.824 76.6468 19.824C76.9668 19.824 77.2974 19.856 77.6388 19.92C77.9908 19.9733 78.3161 20.08 78.6148 20.24C78.9241 20.3893 79.1961 20.592 79.4308 20.848C79.6654 21.0933 79.8361 21.408 79.9427 21.792H78.8388C78.7214 21.4187 78.4814 21.104 78.1188 20.848C77.7561 20.592 77.3294 20.464 76.8388 20.464C76.5401 20.464 76.2254 20.528 75.8948 20.656C75.5641 20.7733 75.2601 20.9707 74.9828 21.248C74.7161 21.5147 74.4921 21.8773 74.3108 22.336C74.1294 22.784 74.0388 23.3333 74.0388 23.984C74.0388 24.6133 74.1188 25.1467 74.2788 25.584C74.4494 26.0107 74.6734 26.3573 74.9508 26.624C75.2281 26.88 75.5428 27.0667 75.8948 27.184C76.2574 27.3013 76.6308 27.36 77.0148 27.36ZM83.9419 28V20.64H80.7419V20H88.5019V20.64H85.3019V28H83.9419ZM90.1081 32V20H91.4681V21.296H91.5321C91.9268 20.3147 92.7588 19.824 94.0281 19.824C94.5615 19.824 95.0521 19.9253 95.5001 20.128C95.9481 20.32 96.3321 20.6027 96.6521 20.976C96.9828 21.3387 97.2388 21.776 97.4201 22.288C97.6015 22.8 97.6921 23.376 97.6921 24.016C97.6921 24.6453 97.6015 25.2213 97.4201 25.744C97.2388 26.256 96.9828 26.6933 96.6521 27.056C96.3321 27.4187 95.9481 27.7013 95.5001 27.904C95.0521 28.096 94.5615 28.192 94.0281 28.192C93.7721 28.192 93.5161 28.1653 93.2601 28.112C93.0148 28.0587 92.7801 27.9733 92.5561 27.856C92.3321 27.7387 92.1295 27.584 91.9481 27.392C91.7775 27.2 91.6388 26.9653 91.5321 26.688H91.4681V32H90.1081ZM91.4681 23.2V24.592C91.4681 25.0293 91.5268 25.4187 91.6441 25.76C91.7721 26.1013 91.9375 26.3947 92.1401 26.64C92.3428 26.8747 92.5775 27.056 92.8441 27.184C93.1108 27.3013 93.3935 27.36 93.6921 27.36C94.0228 27.36 94.3375 27.3013 94.6361 27.184C94.9348 27.056 95.1961 26.8587 95.4201 26.592C95.6548 26.3147 95.8361 25.9627 95.9641 25.536C96.1028 25.1093 96.1721 24.592 96.1721 23.984C96.1721 23.3867 96.1028 22.8747 95.9641 22.448C95.8361 22.0213 95.6601 21.6747 95.4361 21.408C95.2121 21.1413 94.9455 20.9493 94.6361 20.832C94.3375 20.704 94.0228 20.64 93.6921 20.64C93.3828 20.64 93.0895 20.7093 92.8121 20.848C92.5455 20.976 92.3108 21.1573 92.1081 21.392C91.9055 21.616 91.7455 21.888 91.6281 22.208C91.5215 22.5173 91.4681 22.848 91.4681 23.2ZM103.028 26.128H103.092L105.604 20H106.388L102.516 29.52C102.399 29.808 102.276 30.096 102.148 30.384C102.02 30.6827 101.871 30.9493 101.7 31.184C101.53 31.4293 101.332 31.6267 101.108 31.776C100.884 31.9253 100.623 32 100.324 32C100.111 32 99.8817 31.9573 99.6364 31.872C99.391 31.7867 99.167 31.6533 98.9644 31.472L99.6684 30.144C99.7644 30.3573 99.8977 30.5173 100.068 30.624C100.25 30.7413 100.436 30.8 100.628 30.8C100.831 30.8 101.007 30.7253 101.156 30.576C101.316 30.4267 101.444 30.2293 101.54 29.984L102.388 27.904L98.8044 20H100.26L103.028 26.128ZM107.983 20H111.327C111.903 20 112.362 20.0693 112.703 20.208C113.055 20.3467 113.322 20.5173 113.503 20.72C113.684 20.912 113.802 21.1147 113.855 21.328C113.908 21.5413 113.935 21.7227 113.935 21.872C113.935 22.1387 113.882 22.3787 113.775 22.592C113.679 22.7947 113.546 22.976 113.375 23.136C113.215 23.2853 113.028 23.408 112.815 23.504C112.602 23.5893 112.388 23.6533 112.175 23.696V23.808C112.399 23.8187 112.644 23.856 112.911 23.92C113.188 23.984 113.444 24.096 113.679 24.256C113.924 24.4053 114.127 24.6133 114.287 24.88C114.447 25.1467 114.527 25.4827 114.527 25.888C114.527 26.1547 114.474 26.416 114.367 26.672C114.26 26.9173 114.09 27.1413 113.855 27.344C113.62 27.536 113.316 27.696 112.943 27.824C112.57 27.9413 112.122 28 111.599 28H107.983V20ZM109.343 27.36H111.007C111.114 27.36 111.279 27.3547 111.503 27.344C111.738 27.3227 111.967 27.264 112.191 27.168C112.426 27.072 112.628 26.9227 112.799 26.72C112.97 26.5067 113.055 26.208 113.055 25.824C113.055 25.4293 112.964 25.12 112.783 24.896C112.612 24.672 112.404 24.5067 112.159 24.4C111.914 24.2933 111.658 24.2293 111.391 24.208C111.135 24.1867 110.922 24.176 110.751 24.176H109.343V27.36ZM109.343 23.632H110.735C110.98 23.632 111.215 23.6 111.439 23.536C111.663 23.4613 111.86 23.36 112.031 23.232C112.202 23.0933 112.335 22.9333 112.431 22.752C112.538 22.56 112.591 22.3413 112.591 22.096C112.591 21.968 112.57 21.824 112.527 21.664C112.495 21.4933 112.42 21.3333 112.303 21.184C112.186 21.0347 112.015 20.9067 111.791 20.8C111.578 20.6933 111.29 20.64 110.927 20.64H109.343V23.632ZM119.552 19.824C120.331 19.824 120.933 19.936 121.36 20.16C121.787 20.3733 122.096 20.656 122.288 21.008C122.491 21.36 122.608 21.7653 122.64 22.224C122.672 22.6827 122.688 23.152 122.688 23.632V28H121.392V27.216C121.083 27.5147 120.688 27.7547 120.208 27.936C119.728 28.1067 119.248 28.192 118.768 28.192C118.309 28.192 117.904 28.112 117.552 27.952C117.2 27.792 116.907 27.584 116.672 27.328C116.437 27.072 116.261 26.784 116.144 26.464C116.027 26.144 115.968 25.8187 115.968 25.488C115.968 25.1467 116.032 24.8053 116.16 24.464C116.288 24.1227 116.48 23.8187 116.736 23.552C116.992 23.2747 117.307 23.0507 117.68 22.88C118.053 22.7093 118.48 22.624 118.96 22.624C119.44 22.624 119.893 22.72 120.32 22.912C120.757 23.0933 121.115 23.3547 121.392 23.696V23.008C121.392 22.1333 121.259 21.4827 120.992 21.056C120.736 20.6293 120.261 20.416 119.568 20.416C119.269 20.416 119.008 20.4533 118.784 20.528C118.56 20.6027 118.357 20.7093 118.176 20.848C118.005 20.976 117.845 21.1413 117.696 21.344C117.547 21.536 117.397 21.7547 117.248 22L116.416 21.168C116.565 21.008 116.72 20.848 116.88 20.688C117.051 20.528 117.253 20.384 117.488 20.256C117.733 20.128 118.021 20.0267 118.352 19.952C118.683 19.8667 119.083 19.824 119.552 19.824ZM121.392 24.832C121.339 24.704 121.259 24.5547 121.152 24.384C121.056 24.2133 120.928 24.048 120.768 23.888C120.608 23.728 120.416 23.5947 120.192 23.488C119.968 23.3707 119.701 23.312 119.392 23.312C119.083 23.312 118.8 23.376 118.544 23.504C118.288 23.6213 118.069 23.7813 117.888 23.984C117.717 24.176 117.584 24.4053 117.488 24.672C117.392 24.9387 117.344 25.216 117.344 25.504C117.344 25.8453 117.403 26.144 117.52 26.4C117.648 26.6453 117.808 26.8587 118 27.04C118.192 27.2107 118.405 27.3387 118.64 27.424C118.875 27.5093 119.099 27.552 119.312 27.552C119.515 27.552 119.717 27.5147 119.92 27.44C120.133 27.3653 120.331 27.264 120.512 27.136C120.704 26.9973 120.875 26.8373 121.024 26.656C121.173 26.4747 121.296 26.2773 121.392 26.064V24.832ZM127.489 28V20.64H124.289V20H132.049V20.64H128.849V28H127.489ZM135.015 27.056L139.095 20H140.695V28H139.335V20.992L135.255 28H133.655V20H135.015V27.056ZM147.265 27.36C147.702 27.36 148.102 27.2907 148.465 27.152C148.838 27.0027 149.211 26.7733 149.585 26.464L150.049 27.072C149.686 27.3493 149.238 27.6053 148.705 27.84C148.182 28.0747 147.569 28.192 146.865 28.192C146.235 28.192 145.67 28.0853 145.169 27.872C144.667 27.648 144.235 27.3493 143.873 26.976C143.521 26.592 143.249 26.144 143.057 25.632C142.865 25.1093 142.769 24.5493 142.769 23.952C142.769 23.3867 142.854 22.8533 143.025 22.352C143.206 21.8507 143.473 21.4133 143.825 21.04C144.177 20.6667 144.609 20.3733 145.121 20.16C145.633 19.936 146.225 19.824 146.897 19.824C147.217 19.824 147.547 19.856 147.889 19.92C148.241 19.9733 148.566 20.08 148.865 20.24C149.174 20.3893 149.446 20.592 149.681 20.848C149.915 21.0933 150.086 21.408 150.193 21.792H149.089C148.971 21.4187 148.731 21.104 148.369 20.848C148.006 20.592 147.579 20.464 147.089 20.464C146.79 20.464 146.475 20.528 146.145 20.656C145.814 20.7733 145.51 20.9707 145.233 21.248C144.966 21.5147 144.742 21.8773 144.561 22.336C144.379 22.784 144.289 23.3333 144.289 23.984C144.289 24.6133 144.369 25.1467 144.529 25.584C144.699 26.0107 144.923 26.3573 145.201 26.624C145.478 26.88 145.793 27.0667 146.145 27.184C146.507 27.3013 146.881 27.36 147.265 27.36ZM157.984 20V28H156.624V24.176H155.248L153.632 26.944C153.387 27.36 153.115 27.6747 152.816 27.888C152.528 28.0907 152.187 28.192 151.792 28.192C151.44 28.192 151.12 28.128 150.832 28V27.36H151.216C151.547 27.36 151.84 27.2267 152.096 26.96C152.352 26.6933 152.656 26.272 153.008 25.696C153.115 25.5253 153.211 25.3653 153.296 25.216C153.392 25.0667 153.488 24.9333 153.584 24.816C153.68 24.688 153.787 24.576 153.904 24.48C154.021 24.384 154.165 24.304 154.336 24.24V24.176H153.968C153.648 24.176 153.349 24.1227 153.072 24.016C152.795 23.9093 152.555 23.7653 152.352 23.584C152.149 23.4027 151.989 23.1947 151.872 22.96C151.765 22.7147 151.712 22.4533 151.712 22.176C151.712 21.664 151.829 21.264 152.064 20.976C152.299 20.688 152.581 20.4747 152.912 20.336C153.243 20.1867 153.579 20.096 153.92 20.064C154.272 20.0213 154.56 20 154.784 20H157.984ZM156.624 20.64H154.96C154.885 20.64 154.747 20.6507 154.544 20.672C154.352 20.6827 154.155 20.736 153.952 20.832C153.749 20.928 153.568 21.0773 153.408 21.28C153.248 21.4827 153.168 21.7707 153.168 22.144C153.168 22.432 153.221 22.672 153.328 22.864C153.435 23.056 153.579 23.2107 153.76 23.328C153.952 23.4347 154.176 23.5147 154.432 23.568C154.699 23.6107 154.992 23.632 155.312 23.632H156.624V20.64Z" fill="#393939"/>
</svg>
