<svg width="32" height="32" viewBox="0 0 32 32" fill="none" xmlns="http://www.w3.org/2000/svg">
  <path d="M16 0C7.16352 0 0 7.16352 0 16C0 23.5034 5.16608 29.7997 12.135 31.529V20.8896H8.83584V16H12.135V13.8931C12.135 8.44736 14.5997 5.9232 19.9462 5.9232C20.96 5.9232 22.7091 6.12224 23.4246 6.32064V10.7526C23.047 10.713 22.391 10.6931 21.5763 10.6931C18.953 10.6931 17.9392 11.687 17.9392 14.2707V16H23.1654L22.2675 20.8896H17.9392V31.8829C25.8618 30.9261 32.0006 24.1805 32.0006 16C32 7.16352 24.8365 0 16 0Z" fill="#E6F0F0" />
</svg>