<svg width="32" height="24" viewBox="0 0 32 24" fill="none" xmlns="http://www.w3.org/2000/svg">
  <path d="M31.6812 5.60002C31.6812 5.60002 31.3688 3.39377 30.4063 2.42502C29.1875 1.15002 27.825 1.14377 27.2 1.06877C22.725 0.743774 16.0063 0.743774 16.0063 0.743774H15.9937C15.9937 0.743774 9.275 0.743774 4.8 1.06877C4.175 1.14377 2.8125 1.15002 1.59375 2.42502C0.63125 3.39377 0.325 5.60002 0.325 5.60002C0.325 5.60002 0 8.19377 0 10.7813V13.2063C0 15.7938 0.31875 18.3875 0.31875 18.3875C0.31875 18.3875 0.63125 20.5938 1.5875 21.5625C2.80625 22.8375 4.40625 22.7938 5.11875 22.9313C7.68125 23.175 16 23.25 16 23.25C16 23.25 22.725 23.2375 27.2 22.9188C27.825 22.8438 29.1875 22.8375 30.4063 21.5625C31.3688 20.5938 31.6812 18.3875 31.6812 18.3875C31.6812 18.3875 32 15.8 32 13.2063V10.7813C32 8.19377 31.6812 5.60002 31.6812 5.60002ZM12.6938 16.15V7.15627L21.3375 11.6688L12.6938 16.15Z" fill="#E6F0F0" />
</svg>