<svg width="50" height="50" viewBox="0 0 50 50" fill="none" xmlns="http://www.w3.org/2000/svg">
  <path d="M8.3335 29.1667V22.9167C8.3335 18.4964 10.0894 14.2572 13.215 11.1316C16.3407 8.00595 20.5799 6.25 25.0002 6.25C29.4204 6.25 33.6597 8.00595 36.7853 11.1316C39.9109 14.2572 41.6668 18.4964 41.6668 22.9167V29.1667M8.3335 29.1667C8.3335 28.0616 8.77248 27.0018 9.55388 26.2204C10.3353 25.439 11.3951 25 12.5002 25H14.5835C15.6886 25 16.7484 25.439 17.5298 26.2204C18.3112 27.0018 18.7502 28.0616 18.7502 29.1667V35.4167C18.7502 36.5217 18.3112 37.5815 17.5298 38.3629C16.7484 39.1443 15.6886 39.5833 14.5835 39.5833H12.5002C11.3951 39.5833 10.3353 39.1443 9.55388 38.3629C8.77248 37.5815 8.3335 36.5217 8.3335 35.4167V29.1667ZM41.6668 29.1667C41.6668 28.0616 41.2278 27.0018 40.4464 26.2204C39.665 25.439 38.6052 25 37.5002 25H35.4168C34.3118 25 33.252 25.439 32.4706 26.2204C31.6891 27.0018 31.2502 28.0616 31.2502 29.1667V35.4167C31.2502 36.5217 31.6891 37.5815 32.4706 38.3629C33.252 39.1443 34.3118 39.5833 35.4168 39.5833H37.5002M41.6668 29.1667V35.4167C41.6668 36.5217 41.2278 37.5815 40.4464 38.3629C39.665 39.1443 38.6052 39.5833 37.5002 39.5833M37.5002 39.5833C37.5002 43.0354 31.9043 45.8333 25.0002 45.8333" stroke="#E6F0F0" stroke-width="2" stroke-linecap="round" stroke-linejoin="round" />
</svg>