<svg width="50" height="50" viewBox="0 0 50 50" fill="none" xmlns="http://www.w3.org/2000/svg">
  <path d="M10.4165 35.4167C10.4165 36.5218 10.8555 37.5816 11.6369 38.363C12.4183 39.1444 13.4781 39.5834 14.5832 39.5834C15.6882 39.5834 16.748 39.1444 17.5294 38.363C18.3108 37.5816 18.7498 36.5218 18.7498 35.4167M10.4165 35.4167C10.4165 34.3116 10.8555 33.2518 11.6369 32.4704C12.4183 31.689 13.4781 31.25 14.5832 31.25C15.6882 31.25 16.748 31.689 17.5294 32.4704C18.3108 33.2518 18.7498 34.3116 18.7498 35.4167M10.4165 35.4167H6.24984V27.0834M18.7498 35.4167H31.2498M31.2498 35.4167C31.2498 36.5218 31.6888 37.5816 32.4702 38.363C33.2516 39.1444 34.3114 39.5834 35.4165 39.5834C36.5216 39.5834 37.5814 39.1444 38.3628 38.363C39.1442 37.5816 39.5832 36.5218 39.5832 35.4167M31.2498 35.4167C31.2498 34.3116 31.6888 33.2518 32.4702 32.4704C33.2516 31.689 34.3114 31.25 35.4165 31.25C36.5216 31.25 37.5814 31.689 38.3628 32.4704C39.1442 33.2518 39.5832 34.3116 39.5832 35.4167M39.5832 35.4167H43.7498V22.9167M4.1665 10.4167H27.0832V35.4167M43.7498 22.9167H27.0832M43.7498 22.9167L37.4998 12.5H27.0832M6.24984 18.75H14.5832" stroke="#E6F0F0" stroke-width="2" stroke-linecap="round" stroke-linejoin="round" />
</svg>