<svg width="50" height="50" viewBox="0 0 50 50" fill="none" xmlns="http://www.w3.org/2000/svg">
  <path d="M14.5834 20.8334H20.8334V14.5834L13.5417 7.29169C15.8742 6.17767 18.4948 5.8142 21.0425 6.25132C23.5902 6.68843 25.9398 7.90464 27.7676 9.73246C29.5954 11.5603 30.8116 13.9098 31.2487 16.4575C31.6858 19.0052 31.3224 21.6258 30.2084 23.9584L42.7084 36.4584C43.5372 37.2872 44.0028 38.4112 44.0028 39.5834C44.0028 40.7555 43.5372 41.8795 42.7084 42.7084C41.8795 43.5372 40.7555 44.0028 39.5834 44.0028C38.4112 44.0028 37.2872 43.5372 36.4584 42.7084L23.9584 30.2084C21.6258 31.3224 19.0052 31.6858 16.4575 31.2487C13.9098 30.8116 11.5603 29.5954 9.73246 27.7676C7.90464 25.9398 6.68843 23.5902 6.25132 21.0425C5.8142 18.4948 6.17767 15.8742 7.29169 13.5417L14.5834 20.8334Z" stroke="#E6F0F0"  strokeWidth="2"
                  strokeLinecap="round"
                  strokeLinejoin="round" />
</svg>