<svg width="20" height="19" viewBox="0 0 20 19" fill="none" xmlns="http://www.w3.org/2000/svg">
  <path fill-rule="evenodd" clip-rule="evenodd" d="M2.15215 1.60472C4.28791 -0.534907 7.75141 -0.534908 9.88717 1.60472L10.0545 1.77234L10.1128 1.7139C12.2486 -0.425732 15.7121 -0.425732 17.8478 1.7139C20.7174 4.58863 20.7174 9.24875 17.8478 12.1235L11.6061 18.3766C10.9018 19.0821 9.82726 19.1883 9.01026 18.6972C8.78591 18.5941 8.57657 18.4504 8.39395 18.2674L2.15215 12.0143C-0.717384 9.13957 -0.717383 4.47946 2.15215 1.60472ZM8.47168 3.01765C7.11726 1.66078 4.92206 1.66078 3.56764 3.01765C1.47745 5.11163 1.47745 8.50739 3.56764 10.6014L9.80944 16.8545C9.82311 16.8682 9.83689 16.8766 9.8505 16.8821L9.9483 16.9213L10.0358 16.98C10.0832 17.0117 10.1487 17.0056 10.1906 16.9637L16.4324 10.7105C18.5225 8.61657 18.5225 5.22081 16.4324 3.12683C15.0779 1.76996 12.8827 1.76996 11.5283 3.12683L10.0545 4.60333L8.47168 3.01765Z" fill="#EDEFE8" />
</svg>