<svg width="130" height="44" viewBox="0 0 130 44" fill="none" xmlns="http://www.w3.org/2000/svg">
<rect width="130" height="44" rx="20" fill="white"/>
<path d="M23.288 17.252H29.32C29.8107 17.252 30.056 17.4467 30.056 17.836C30.056 18.2307 29.8107 18.428 29.32 18.428H24.464V19.868H26.84C27.56 19.868 28.2 20.0413 28.76 20.388C29.3253 20.7293 29.7707 21.196 30.096 21.788C30.4213 22.38 30.584 23.0467 30.584 23.788C30.584 24.524 30.4213 25.188 30.096 25.78C29.776 26.3667 29.3333 26.8307 28.768 27.172C28.2027 27.5133 27.56 27.684 26.84 27.684H23.84C23.472 27.684 23.288 27.4467 23.288 26.972V17.252ZM26.84 21.044H24.464V26.508H26.84C27.3627 26.508 27.816 26.3933 28.2 26.164C28.584 25.9293 28.88 25.6067 29.088 25.196C29.3013 24.7853 29.408 24.3133 29.408 23.78C29.408 23.2467 29.3013 22.7747 29.088 22.364C28.88 21.9533 28.584 21.6307 28.2 21.396C27.816 21.1613 27.3627 21.044 26.84 21.044ZM32.9613 27.86C32.5773 27.86 32.3853 27.6333 32.3853 27.18V20.46C32.3853 20.2413 32.4359 20.0707 32.5373 19.948C32.6439 19.82 32.7879 19.756 32.9693 19.756C33.1559 19.756 33.2999 19.82 33.4013 19.948C33.5079 20.0707 33.5613 20.2413 33.5613 20.46V27.18C33.5613 27.6333 33.3613 27.86 32.9613 27.86ZM32.9693 18.708C32.7186 18.708 32.4919 18.6253 32.2893 18.46C32.0866 18.2893 31.9853 18.0973 31.9853 17.884C31.9853 17.6653 32.0839 17.4733 32.2812 17.308C32.4786 17.1373 32.7026 17.052 32.9533 17.052C33.2093 17.052 33.4413 17.1373 33.6493 17.308C33.8573 17.4787 33.9613 17.6707 33.9613 17.884C33.9613 18.124 33.8466 18.3213 33.6173 18.476C33.3933 18.6307 33.1773 18.708 32.9693 18.708ZM42.4483 27.684C42.0589 27.684 41.8643 27.4467 41.8643 26.972V21.228H38.6323C38.2749 21.228 38.0349 21.2813 37.9123 21.388C37.7949 21.4893 37.7363 21.6867 37.7363 21.98V25.444C37.7363 25.9667 37.6696 26.3853 37.5363 26.7C37.4029 27.0093 37.1949 27.2333 36.9123 27.372C36.6296 27.5107 36.2669 27.58 35.8243 27.58C35.5736 27.58 35.3709 27.5373 35.2163 27.452C35.0669 27.3613 34.9923 27.204 34.9923 26.98C34.9923 26.5907 35.2483 26.396 35.7603 26.396C36.0589 26.396 36.2669 26.3427 36.3843 26.236C36.5016 26.1293 36.5603 25.9373 36.5603 25.66V22.18C36.5603 21.6307 36.6163 21.2013 36.7283 20.892C36.8456 20.5827 37.0456 20.3667 37.3283 20.244C37.6163 20.116 38.0109 20.052 38.5123 20.052H43.0403V26.956C43.0403 27.4413 42.8429 27.684 42.4483 27.684ZM45.3159 27.572V20.652C45.3159 20.1773 45.5105 19.94 45.8999 19.94C46.2945 19.94 46.4919 20.1773 46.4919 20.652V23.1H49.9159C50.4865 23.1 50.9772 23.1853 51.3879 23.356C51.7985 23.5213 52.1159 23.7693 52.3399 24.1C52.5639 24.4307 52.6759 24.8413 52.6759 25.332C52.6759 25.8227 52.5639 26.2333 52.3399 26.564C52.1212 26.8947 51.8039 27.1427 51.3879 27.308C50.9772 27.4733 50.4865 27.5613 49.9159 27.572H45.3159ZM46.4919 26.396H49.7799C50.2705 26.396 50.6785 26.3267 51.0039 26.188C51.3345 26.044 51.4999 25.7773 51.4999 25.388C51.4999 25.068 51.4279 24.828 51.2839 24.668C51.1452 24.508 50.9452 24.404 50.6839 24.356C50.4279 24.3027 50.1265 24.276 49.7799 24.276H46.4919V26.396ZM54.3003 27.572V20.636C54.3003 20.172 54.4949 19.94 54.8843 19.94C55.2789 19.94 55.4763 20.172 55.4763 20.636V26.396H57.8683V20.636C57.8683 20.172 58.0656 19.94 58.4603 19.94C58.8496 19.94 59.0443 20.172 59.0443 20.636V26.396H61.4443V20.636C61.4443 20.172 61.6389 19.94 62.0283 19.94C62.4229 19.94 62.6203 20.172 62.6203 20.636V27.572H54.3003ZM68.598 27.572C67.6433 27.572 66.878 27.484 66.302 27.308C65.726 27.132 65.3073 26.8333 65.046 26.412C64.79 25.9853 64.662 25.4013 64.662 24.66V22.956C64.662 22.22 64.79 21.6413 65.046 21.22C65.3073 20.7933 65.726 20.492 66.302 20.316C66.878 20.14 67.6433 20.052 68.598 20.052H69.062C70.0167 20.052 70.782 20.1427 71.358 20.324C71.934 20.5 72.35 20.8013 72.606 21.228C72.862 21.6493 72.99 22.2253 72.99 22.956V23.748H65.838V24.628C65.838 25.1293 65.9073 25.508 66.046 25.764C66.1847 26.0147 66.4513 26.1827 66.846 26.268C67.246 26.3533 67.83 26.396 68.598 26.396H70.982C71.2593 26.396 71.446 26.3427 71.542 26.236C71.6433 26.124 71.694 25.924 71.694 25.636C71.694 25.396 71.7473 25.2093 71.854 25.076C71.9607 24.9427 72.1047 24.876 72.286 24.876C72.4727 24.8813 72.6167 24.9533 72.718 25.092C72.8193 25.2253 72.87 25.4173 72.87 25.668C72.87 26.0787 72.8113 26.428 72.694 26.716C72.5767 26.9987 72.3873 27.212 72.126 27.356C71.8647 27.5 71.5207 27.572 71.094 27.572H68.598ZM65.838 22.572H71.806C71.7633 22.0387 71.582 21.6867 71.262 21.516C71.07 21.4093 70.7873 21.3347 70.414 21.292C70.046 21.2493 69.5953 21.228 69.062 21.228H68.598C68.038 21.228 67.574 21.2493 67.206 21.292C66.838 21.3347 66.5607 21.4067 66.374 21.508C66.0487 21.6787 65.87 22.0333 65.838 22.572Z" fill="#393939"/>
<path d="M93 16L99 22L93 28" stroke="black" stroke-width="2" stroke-linecap="round" stroke-linejoin="round"/>
</svg>
