<?xml version="1.0" encoding="iso-8859-1"?>
<!-- Uploaded to: SVG Repo, www.svgrepo.com, Generator: SVG Repo Mixer Tools -->
<svg version="1.1" id="Layer_1" xmlns="http://www.w3.org/2000/svg" xmlns:xlink="http://www.w3.org/1999/xlink" 
	 viewBox="0 0 512 512" xml:space="preserve">
<polygon style="fill:#FDB51E;" points="86.326,285.767 181.581,285.767 205.395,285.767 205.395,321.488 133.953,321.488 
	62.512,321.488 62.512,285.767 "/>
<g>
	<rect x="378.047" y="398.884" style="fill:#FFD311;" width="59.535" height="71.442"/>
	<path style="fill:#FFD311;" d="M181.581,214.326v71.442H86.326v-71.442c0-6.549,5.358-11.907,11.907-11.907h17.86h35.721h17.86
		C176.223,202.419,181.581,207.777,181.581,214.326z"/>
</g>
<polygon style="fill:#7E8488;" points="407.814,232.186 503.07,339.349 312.558,339.349 "/>
<polygon style="fill:#445764;" points="312.558,339.349 503.07,339.349 503.07,470.326 437.581,470.326 437.581,398.884 
	378.047,398.884 378.047,470.326 312.558,470.326 "/>
<g>
	<path style="fill:#009AD2;" d="M151.814,166.698c0,5.953,0,35.721,0,35.721h-35.721v-35.721c0,0,0-5.953,5.953-5.953
		c5.953,0,23.814,0,23.814,0S151.814,160.744,151.814,166.698z"/>
	<path style="fill:#009AD2;" d="M133.953,321.488h71.442v-35.721h-23.814v-71.442c0-6.549-5.358-11.907-11.907-11.907h-17.86
		c0,0,0-29.767,0-35.721s-5.953-5.953-5.953-5.953s-17.86,0-23.814,0c-5.953,0-5.953,5.953-5.953,5.953v35.721h-17.86
		c-6.549,0-11.907,5.358-11.907,11.907v71.442H62.512v35.721H133.953z M258.977,113.116v297.674H8.93V113.116H258.977z"/>
</g>
<g>
	<path style="fill:#9DA1A4;" d="M8.93,410.791h250.047v47.628c0,6.549-5.358,11.907-11.907,11.907H20.837
		c-6.549,0-11.907-5.358-11.907-11.907V410.791z"/>
	<path style="fill:#9DA1A4;" d="M20.837,41.674H247.07c6.549,0,11.907,5.358,11.907,11.907v59.535H8.93V53.581
		C8.93,47.033,14.288,41.674,20.837,41.674z"/>
</g>
<polygon style="fill:#F99D21;" points="86.326,285.767 62.512,285.767 62.512,321.488 133.953,321.488 133.953,285.767 "/>
<path style="fill:#FABD1B;" d="M133.953,202.419h-17.86h-17.86c-6.549,0-11.907,5.358-11.907,11.907v71.442h47.628V202.419z"/>
<path d="M247.07,32.744H20.837C9.348,32.744,0,42.092,0,53.581v404.837c0,11.489,9.348,20.837,20.837,20.837H247.07
	c11.489,0,20.837-9.348,20.837-20.837V53.581C267.907,42.092,258.559,32.744,247.07,32.744z M20.837,50.605H247.07
	c1.613,0,2.977,1.363,2.977,2.977v50.605H17.86V53.581C17.86,51.968,19.224,50.605,20.837,50.605z M250.047,122.047V401.86H17.86
	V122.047H250.047z M247.07,461.395H20.837c-1.613,0-2.977-1.363-2.977-2.977v-38.698h232.186v38.698
	C250.047,460.032,248.683,461.395,247.07,461.395z"/>
<rect x="86.326" y="68.465" width="95.256" height="17.86"/>
<rect x="116.093" y="431.628" width="35.721" height="17.86"/>
<rect x="32.744" y="139.907" style="fill:#FFFFFF;" width="23.814" height="17.86"/>
<rect x="211.349" y="139.907" width="23.814" height="17.86"/>
<rect x="211.349" y="366.14" width="23.814" height="17.86"/>
<rect x="175.628" y="366.14" style="fill:#FFFFFF;" width="23.814" height="17.86"/>
<rect x="32.744" y="366.14" width="23.814" height="17.86"/>
<rect x="68.465" y="366.14" style="fill:#FFFFFF;" width="23.814" height="17.86"/>
<path d="M407.814,218.744L303.628,335.953v143.303H512V335.953L407.814,218.744z M483.184,330.419h-150.74l75.37-84.791
	L483.184,330.419z M428.651,461.395h-41.674v-53.581h41.674V461.395z M446.512,461.395v-53.581h14.884v-17.86H354.233v17.86h14.884
	v53.581h-47.628V348.279H494.14v113.116H446.512z"/>
<rect x="395.907" y="288.744" width="23.814" height="17.86"/>
<rect x="389.953" y="360.186" style="fill:#FFFFFF;" width="35.721" height="17.86"/>
<path d="M405.79,80.372c48.474,0,64.461,40.157,65.105,41.834l16.723-6.273c-0.819-2.181-20.737-53.422-81.828-53.422
	c-31.907,0-51.93,14.523-63.108,26.707c-12.07,13.155-16.614,26.455-16.801,27.015l16.923,5.709
	C343.389,120.245,357.68,80.372,405.79,80.372z"/>
<path d="M434.221,146.02l16.723-6.273c-0.454-1.209-11.49-29.608-45.155-29.608c-33.781,0-43.78,28.686-44.188,29.907l16.935,5.675
	c0.06-0.177,6.181-17.721,27.254-17.721C426.866,128,433.956,145.35,434.221,146.02z"/>
<rect x="395.907" y="163.721" width="23.814" height="17.86"/>
<path d="M53.581,276.837v53.581h71.442v20.837h17.86v-20.837h71.442v-53.581h-23.814v-62.512c0-11.489-9.348-20.837-20.837-20.837
	h-8.93v-26.791c0-9.667-7.668-14.884-14.884-14.884h-23.814c-9.667,0-14.884,7.668-14.884,14.884v26.791h-8.93
	c-11.489,0-20.837,9.348-20.837,20.837v62.512H53.581z M196.465,312.558H71.442v-17.86h125.023V312.558z M125.023,169.674h17.86
	v23.814h-17.86V169.674z M95.256,214.326c0-1.613,1.363-2.977,2.977-2.977h71.442c1.613,0,2.977,1.363,2.977,2.977v62.512H95.256
	V214.326z"/>
<rect x="116.093" y="235.163" style="fill:#FFFFFF;" width="35.721" height="17.86"/>
</svg>